<?xml version="1.0" encoding="iso-8859-1"?>
<!-- Generator: Adobe Illustrator 19.0.0, SVG Export Plug-In . SVG Version: 6.00 Build 0)  -->
<svg version="1.1" id="Layer_1" xmlns="http://www.w3.org/2000/svg" xmlns:xlink="http://www.w3.org/1999/xlink" x="0px" y="0px"
	 viewBox="0 0 512.001 512.001" style="enable-background:new 0 0 512.001 512.001;" xml:space="preserve">
<g>
	<path style="fill:#507C5C;" d="M255.999,420.842c-58.045,0-120.387-27.289-180.283-78.915
		c-44.577-38.423-72.019-76.391-73.164-77.988c-3.404-4.745-3.404-11.133,0.001-15.878c1.202-1.675,29.986-41.492,76.505-80.838
		c59.662-50.472,119.194-76.064,176.941-76.064s117.279,25.592,176.942,76.065c46.516,39.345,75.301,79.16,76.504,80.837
		c3.405,4.745,3.405,11.133,0.001,15.878c-0.925,1.287-23.042,31.913-59.765,65.997c-5.511,5.114-14.128,4.794-19.243-0.718
		c-5.117-5.512-4.794-14.127,0.716-19.243c23.842-22.128,41.397-43.024,50.077-53.973c-10.489-13.223-33.954-40.983-65.88-67.985
		c-37.546-31.763-95.669-69.625-159.354-69.625s-121.808,37.862-159.353,69.623c-31.914,26.993-55.372,54.739-65.869,67.972
		c24.185,30.384,117.215,137.621,225.222,137.621c37.113,0,76.083-12.644,115.829-37.58c6.371-3.998,14.777-2.071,18.77,4.297
		c3.998,6.37,2.072,14.774-4.297,18.77C342.15,406.798,298.311,420.842,255.999,420.842z"/>
	<path style="fill:#507C5C;" d="M255.999,420.842c-90.894,0-164.842-73.948-164.842-164.842S165.106,91.16,255.999,91.16
		s164.842,73.948,164.842,164.842c0,7.52-6.097,13.616-13.616,13.616c-7.519,0-13.616-6.096-13.616-13.616
		c0-75.877-61.731-137.609-137.609-137.609S118.39,180.124,118.39,256.002s61.731,137.609,137.609,137.609
		c7.519,0,13.616,6.096,13.616,13.616S263.518,420.842,255.999,420.842z"/>
</g>
<circle style="fill:#CFF09E;" cx="256" cy="256.003" r="85.704"/>
<path style="fill:#507C5C;" d="M255.999,355.321c-54.765,0-99.319-44.554-99.319-99.319s44.556-99.319,99.319-99.319
	s99.319,44.554,99.319,99.319S310.763,355.321,255.999,355.321z M255.999,183.914c-39.749,0-72.087,32.339-72.087,72.087
	s32.338,72.087,72.087,72.087s72.087-32.339,72.087-72.087S295.748,183.914,255.999,183.914z"/>
<g>
</g>
<g>
</g>
<g>
</g>
<g>
</g>
<g>
</g>
<g>
</g>
<g>
</g>
<g>
</g>
<g>
</g>
<g>
</g>
<g>
</g>
<g>
</g>
<g>
</g>
<g>
</g>
<g>
</g>
</svg>
